# xmcd
#
# Track frame offsets:
#	150
#	19885
#	38282
#	56852
#	76705
#	95680
#	119912
#	138272
#	158152
#	182245
#	202467
#
# Disc length: 3032 seconds
# Revision: 0
# Processed by: cddbd v1.5.2PL0 Copyright (c) Steve Scherf et al.
# Submitted via: dBpowerAMP V12.0
#
DISCID=9a0bd60b
DTITLE=4Him - The Message
DYEAR=1996
DGENRE=Contemporary Christian
TTITLE0=Lay It All On The Line
TTITLE1=The Measure Of A Man
TTITLE2=Land Of Mercy
TTITLE3=The Message
TTITLE4=The King And I
TTITLE5=Center Of The Mark
TTITLE6=Window With A View
TTITLE7=All The Evidence I Need
TTITLE8=Sacred Hideaway
TTITLE9=A Lot Like You
TTITLE10=Greatest Story Ever Told
EXTD=
EXTT0=
EXTT1=
EXTT2=
EXTT3=
EXTT4=
EXTT5=
EXTT6=
EXTT7=
EXTT8=
EXTT9=
EXTT10=
PLAYORDER=
